<?xml version="1.0" encoding="UTF-8"?>
<svg
  xmlns="http://www.w3.org/2000/svg"
  width="491"
  height="676"
  viewBox="0 0 491 676"
  preserveAspectRatio="xMidYMid meet">
  <defs
     id="defs10506">
    <linearGradient
       id="tileblack">
      <stop offset="0%"
         style="stop-color:#000000"
         id="stop5614" />
    </linearGradient>
    <linearGradient
       id="tileblue">
      <stop offset="0%"
         style="stop-color:#000040"
         id="stop5608" />
    </linearGradient>
    <linearGradient
       id="tilered">
      <stop offset="0%"
         style="stop-color:#800000"
         id="stop17363" />
    </linearGradient>
    <linearGradient
       id="tilebrred">
      <stop offset="0%"
         style="stop-color:#C00000"
         id="stop17373" />
    </linearGradient>
    <linearGradient
       id="tilegreen">
      <stop offset="0%"
         style="stop-color:#004000"
         id="stop17331" />
    </linearGradient>
    <linearGradient
       id="tileface">
      <stop offset="0%"
         style="stop-color:#fefbe6"
         id="stop12" />
    </linearGradient>
    <linearGradient
       id="tileframe">
      <stop offset="0%"
         style="stop-color:#000000"
         id="stop15" />
    </linearGradient>
    <linearGradient
       id="tileback">
      <stop offset="0%"
         style="stop-color:#e6a80f"
         id="stop16" />
    </linearGradient>
  </defs>

  <!--
    This file keeps the original tile frame path.
    The frame path contains both tile background and outline:
    fill:url(#tileface); stroke:url(#tileframe)
  -->
  <g transform="translate(-4560, -2336)">
<g
     id="back"
     transform="translate(4560,2336)">
    <path
       style="fill:url(#tileback)"
       id="path9642"
       d="M 25.24,4e-5 C 15.84,2.22004 6.96,9.64004 2.6,18.92 L 0,24.42 v 310.5 310.5 l 2.6,5.5 c 3.3,7.02 9.88,13.6 16.9,16.9 l 5.5,2.6 H 239.5 454 l 5.5,-2.6 c 7.02,-3.3 13.6,-9.88 16.9,-16.9 l 2.6,-5.5 V 334.92 24.42 l -2.6,-5.5 C 473.1,11.9 466.52,5.32004 459.5,2.02004 l -5.5,-2.6 -212.5,-0.16 c -121.82,-0.08 -214.1,0.24 -216.26,0.74 z" />
  </g>
  </g>
</svg>
